<?xml version="1.0" encoding="utf-8"?>
<!-- Generator: Adobe Illustrator 15.0.2, SVG Export Plug-In . SVG Version: 6.00 Build 0)  -->
<!DOCTYPE svg PUBLIC "-//W3C//DTD SVG 1.1//EN" "http://www.w3.org/Graphics/SVG/1.1/DTD/svg11.dtd">
<svg version="1.1" id="Layer_1" xmlns="http://www.w3.org/2000/svg" xmlns:xlink="http://www.w3.org/1999/xlink" x="0px" y="0px"
	 width="1000px" height="750px" viewBox="0 0 1000 750" enable-background="new 0 0 1000 750" xml:space="preserve">
<path fill="#F3B526" d="M971.776,529.811c0.362-0.267,1.131-0.206,1.969-0.176"/>
<path fill="#23689A" d="M714.495,6H539.89C522.705,6,509,20.087,509,37.274v174.608C509,229.068,522.705,243,539.89,243h13.945
	c0,0,4.891-44.837,5.643-51.725c0.751-6.89,2.118-26.101,24.611-26.101c0,0,5.329-9.404,7.208-11.6
	c1.054-1.226,4.652,0.485,7.62,2.234l0.289-0.432c5.57-10.661-3.61-19.282-3.614-19.282c-4.415-5.19-4.355-15.934-6.715-23.162
	c-1.021,0.464-2.116,0.715-3.259,0.715c-5.413,0-7.007-5.932-8.86-12.695c-1.448-5.302-0.237-13.463,4.765-11.539l0.003,0.003
	c0,0-4.905-18.445,3.665-27.366c1.27-1.319,3.46-1.73,3.46-1.73c5.862-13.151,16.357-25.798,38.353-25.798
	c24.022,0,33.774,12.467,39.21,25.529c0,0,2.946-0.686,4.324,1.729c4.741,8.297,2.555,24.426,2.122,27.265
	c5.042-2.015,6.517,6.61,4.582,11.907c-2.402,6.587-3.446,12.695-8.859,12.695c-1.141,0-2.236-0.251-3.256-0.716
	c-2.35,7.213-2.285,17.942-6.693,23.132l-0.025,0.031c0,0-9.583,7.475-3.61,19.282l0.289,0.323c2.93-1.709,6.402-3.327,7.433-2.125
	c1.88,2.196,7.212,11.6,7.212,11.6c21.651,0,23.756,18.993,24.607,26.101c0.854,7.103,6.213,51.725,6.213,51.725h13.944
	C731.685,243,746,229.068,746,211.882V37.274C746,20.087,731.685,6,714.495,6z"/>
<polygon fill="#23689A" points="639.691,216.809 631.738,177.415 636.283,171.356 633.254,167.567 627.192,167.567 621.134,167.567 
	618.104,171.356 622.646,177.415 614.693,216.809 627.192,228.422 "/>
<path fill="#3E9ED8" d="M714.495,257H539.888C522.702,257,509,270.509,509,287.698v174.603C509,479.486,522.702,493,539.888,493
	h13.947c0,0,4.892-44.625,5.643-51.516c0.751-6.889,2.116-25.996,24.608-25.996c0,0,5.332-9.348,7.211-11.545
	c1.054-1.228,4.652,0.512,7.62,2.259l0.286-0.417c5.573-10.658-1.816-14.087-1.816-14.087c-6.75-3.874-7.387-15.862-8.387-24.892
	v0.003c-1,0.462-2.176,0.72-3.319,0.72c-8.153,0-7.041-9.394-8.892-16.155c-1.448-5.298-0.253-13.464,4.749-11.539l2.587,0.868
	c0,0-10.026-54.894,42.882-54.894c49.747,0,42.992,54.96,42.992,54.96l2.2-1.096c5.412-2.742,7.035,6.246,5.043,11.7
	c-2.402,6.589-0.808,16.155-8.86,16.155c-1.14,0-2.235-0.257-3.254-0.719c-1.495,9.298-1.951,21.022-8.423,24.862l-0.026,0.032
	c0,0-7.857,2.287-1.882,14.093l0.285,0.321c2.934-1.709,6.406-3.324,7.434-2.123c1.883,2.197,7.212,11.597,7.212,11.597
	c21.651,0,23.759,18.788,24.61,25.892c0.854,7.105,6.213,51.516,6.213,51.516h13.944C731.682,493,746,479.486,746,462.301V287.698
	C746,270.509,731.682,257,714.495,257z"/>
<polygon fill="#3E9ED8" points="638.355,465.163 630.401,425.77 634.947,419.711 631.915,415.924 625.856,415.924 619.798,415.924 
	616.769,419.711 621.311,425.77 613.356,465.163 625.856,476.775 "/>
<path fill="#8FC74A" d="M205.724,257H31.118C13.929,257,0,270.512,0,287.695v174.605C0,479.486,13.929,493,31.118,493h13.945
	c0,0,4.89-44.625,5.641-51.516c0.752-6.891,2.117-25.996,24.61-25.996c0,0,5.33-9.351,7.21-11.545
	c1.052-1.228,4.653,0.512,7.621,2.259l0.286-0.417c5.573-10.662-1.879-19.274-1.882-19.278c-4.419-5.19-6.087-15.935-8.448-23.16
	c-1.018,0.465-2.112,0.721-3.255,0.721c-5.413,0-7.006-5.933-8.86-12.698c-1.452-5.297,0.01-17.572,6.492-11.536l0.003,0.003
	c0,0-5.885-31.976,6.769-46.521c4.321-4.973,7.405,1.908,11.147-0.832c3.007-2.2,4.844-14.854,16.296-14.854
	c3.457,0,0.292,7.941,3.752,7.591c1.838-0.183,6.839-6.602,13.104-5.763c3.855,0.517-1.815,5.66,0.675,5.987
	c3.328,0.44,9.171-2.952,17.044-1.638c4.093,0.681-2.984,5.426-1.066,6.874c2.146,1.626,5.821-1.69,10.501,0.53
	c10.922,5.18,9.644,42.875,9.414,48.089c5.7-4.784,8.297,6.744,6.353,12.069c-2.403,6.588-3.447,12.698-8.859,12.698
	c-1.141,0-2.237-0.253-3.256-0.716c-2.355,7.214-4.014,17.942-8.421,23.132l-0.03,0.032c0,0-7.85,7.472-1.878,19.28l0.286,0.324
	c2.933-1.712,6.405-3.327,7.437-2.126c1.879,2.194,7.208,11.597,7.208,11.597c21.655,0,23.759,18.784,24.61,25.892
	c0.854,7.102,6.213,51.516,6.213,51.516h13.945C222.91,493,237,479.486,237,462.301V287.695C237,270.512,222.91,257,205.724,257z"/>
<polygon fill="#8FC74A" points="130.22,466.808 122.266,427.414 126.812,421.355 123.781,417.568 117.721,417.568 111.662,417.568 
	108.633,421.355 113.175,427.414 105.221,466.808 117.721,478.42 "/>
<path fill="#E85D31" d="M968.882,6H794.276C777.09,6,763,20.093,763,37.281v174.604C763,229.068,777.09,243,794.276,243h13.944
	c0,0,5.362-44.625,6.213-51.729c0.852-7.104,2.959-26.099,24.61-26.099c0,0,5.329-9.402,7.212-11.6
	c1.027-1.202,4.5,0.417,7.434,2.126l0.289-0.323c5.972-11.807-3.611-19.281-3.611-19.281l-0.028-0.032
	c-4.404-5.19-4.34-15.918-6.69-23.133c-1.021,0.466-2.117,0.719-3.259,0.719c-5.409,0-6.457-6.11-8.859-12.695
	c-1.935-5.312-0.449-13.958,4.621-11.891c-0.32-5.046-2.246-54.54,45.62-54.54c23.435,0,25.375,12.451,25.375,12.451
	c25.998,5.875,20.115,42.364,20.104,42.442c5.001-1.925,6.212,6.239,4.764,11.538c-1.851,6.765-3.447,12.695-8.86,12.695
	c-1.139,0-2.238-0.253-3.255-0.717c-2.36,7.223-2.3,17.97-6.723,23.164c0,0-9.181,8.624-3.607,19.281l0.289,0.432
	c2.969-1.75,6.566-3.461,7.616-2.236c1.883,2.197,7.212,11.6,7.212,11.6c22.493,0,23.858,19.208,24.607,26.099
	c0.755,6.891,5.644,51.729,5.644,51.729h13.945c17.187,0,31.118-13.932,31.118-31.115V37.281C1000,20.093,986.068,6,968.882,6z"/>
<polygon fill="#E85D31" points="894.082,215.83 886.128,176.437 890.67,170.376 887.641,166.587 881.579,166.587 875.521,166.587 
	872.494,170.376 877.033,176.437 869.08,215.83 881.579,227.443 "/>
<path fill="#E85D31" d="M460.109,257H285.501C268.316,257,254,270.512,254,287.698v174.605C254,479.49,268.316,493,285.501,493
	h13.946c0,0,4.893-44.625,5.643-51.516c0.752-6.889,2.117-25.996,24.61-25.996c0,0,5.331-9.351,7.212-11.548
	c1.05-1.225,4.65,0.515,7.618,2.262l0.288-0.417c2.787-5.329,2.316-10.146,1.15-13.634l-0.528-0.153
	c-1.486,6.888-9.335,6.84-9.335,6.84c2.975-4.423,1.488-12.293,1.488-12.293c0,3.933-8.921,8.36-8.921,8.36
	c2.973-7.867-2.851-17.536-5.948-21.636c-1.63-2.158-2.062-9.721-2.062-9.721c-2.777,2.602-9.787,0.857-8.355-0.074
	c11.526-7.49,10.509-19.091,10.509-24.651c0,0-1.604-35.548,24.427-41.427c0,0,1.94-12.451,25.373-12.451
	c38.807,0,36.852,34.157,47.122,43.666c5.998,5.554,9.836,4.035,9.836,4.035c-3.458,5.617-11.68,3.982-11.68,3.982
	c7.615,13.306-6.216,24.828,11.649,33.473c0,0-5.098,2.468-11.948,1.189c0,0-4.769,14.51,2.369,17.893c0,0-9.048,2.155-14.017,0
	c0,0-0.148,5.307,2.272,9.589c0,0-7.065-1.009-9.78-4.591c-0.583,3.094-0.352,7.026,1.971,11.616l0.288,0.324
	c2.933-1.709,6.405-3.327,7.433-2.129c1.883,2.197,7.212,11.6,7.212,11.6c21.651,0,23.757,18.788,24.61,25.892
	c0.854,7.105,6.213,51.516,6.213,51.516h13.945C477.296,493,491,479.49,491,462.304V287.698C491,270.512,477.296,257,460.109,257z"
	/>
<polygon fill="#E85D31" points="378.915,421.696 388.751,416.589 393.89,416.589 397.667,420.366 397.667,429.813 393.89,433.588 
	388.861,433.518 382.254,430.174 382.238,430.209 393.126,447.331 385.226,455.23 372.807,431.198 360.386,455.23 352.485,447.331 
	363.374,430.209 356.86,433.588 351.722,433.588 347.944,429.811 347.944,420.366 351.722,416.589 356.751,416.662 366.698,421.696 
	369.413,418.981 376.201,418.981 "/>
<path fill="#3E9ED8" d="M205.724,6H31.118C13.932,6,0,20.088,0,37.276v174.602C0,229.068,13.932,243,31.118,243h15.708
	c1.642-13,3.916-32.404,4.448-36.824c0.853-7.103,2.957-25.886,24.608-25.886c0,0,5.333-9.406,7.212-11.6
	c1.028-1.201,4.502,0.415,7.433,2.127l0.289-0.325c5.972-11.806-3.61-19.277-3.61-19.277l-0.026-0.036
	c-4.408-5.187-4.344-15.917-6.693-23.132c-1.02,0.467-2.115,0.72-3.256,0.72c-5.413,0-6.457-6.11-8.86-12.698
	c-1.933-5.294-0.461-13.915,4.576-11.907c-0.209-1.278-0.775-5.264-0.699-10.545c0.02-1.266-7.648-1.16-7.314-6.887
	c0.086-1.522,5.14,4.285,6.82-4.661c2.116-11.262,9.543-23.588,25.968-29.254c-0.165-0.962-0.253-2.015-0.253-3.175
	c0-12.965,10.624-16.425,23.73-16.425c12.202,0,22.246,3.003,23.576,13.878c4.438-5.386,9.437-11.339,9.881-11.382
	c1.031-0.096,1.185,1.729-0.948,4.083c-1.104,1.217-5.146,5.622-8.786,9.586c0.001,0.087,0.007,0.171,0.007,0.26
	c0,0.392-0.011,0.77-0.03,1.139c6.561-3.263,14.627-7.195,15.083-7.04c0.979,0.337,0.374,2.065-2.534,3.334
	c-1.586,0.695-7.599,3.286-12.733,5.497c-0.186,1.199-0.483,2.259-0.897,3.188c24.061,14.31,20.285,48.778,20.285,48.778l0.02-0.006
	c4.999-1.924,6.246,6.242,4.797,11.539c-1.851,6.762-3.381,12.698-8.794,12.698c-1.14,0-2.126-0.25-3.126-0.72v-0.006
	c-3,7.228-2.431,17.97-6.851,23.164c0,0.003-9.312,8.616-3.738,19.274l0.286,0.417c2.968-1.748,6.566-3.486,7.62-2.259
	c1.883,2.194,7.212,11.547,7.212,11.547c22.49,0,23.858,19.104,24.607,25.991c0.469,4.292,2.544,23.824,4.041,36.824h15.548
	C222.91,243,237,229.068,237,211.878V37.276C237,20.088,222.91,6,205.724,6z"/>
<polygon fill="#3E9ED8" points="124.528,187.167 134.364,182.063 139.504,182.063 143.282,185.841 143.282,195.285 139.504,199.063 
	134.473,198.989 127.869,195.648 127.853,195.684 138.739,212.802 130.838,220.705 118.421,196.673 105.999,220.705 98.1,212.802 
	108.986,195.684 102.475,199.063 97.335,199.063 93.557,195.285 93.557,185.838 97.335,182.063 102.366,182.134 112.311,187.167 
	115.025,184.453 121.813,184.453 "/>
<path fill="#F3B526" d="M968.882,257H794.276C777.09,257,763,270.512,763,287.698v174.605C763,479.49,777.09,493,794.276,493h15.5
	c1.5-13,3.613-32.916,4.086-37.254c0.751-6.891,2.116-25.992,24.609-25.992c0,0,5.33-9.351,7.212-11.545
	c1.051-1.23,4.648,0.509,7.62,2.256l0.286-0.417c5.573-10.658-1.88-19.274-1.883-19.274c-4.419-5.193-6.088-15.937-8.447-23.16
	c-1.019,0.466-2.116,0.721-3.256,0.721c-5.412,0-7.006-5.937-8.859-12.698c-0.726-2.65-0.787-6.016-0.038-8.477
	c-0.849,0.292-2.152-0.976-2.426-1.766c-0.27-0.783-0.354-1.931,0.411-3.376c0.765-1.439-0.125-5.834-0.125-5.834s0,0-1.131,0.392
	c-1.131,0.389-1.567-2.691-1.455-4.201c0.109-1.51,3.042-4,2.868-5.406c-0.173-1.41-0.636-1.834-1.082-4.035
	c-0.446-2.197,0.591-2.853,0.883-3.836c0.293-0.982,2.551-1.767,3.599-3.305c1.047-1.539-0.363-1.051-0.909-2.625
	c-0.546-1.577,2.284-3.44,2.766-4.783c0.485-1.343-0.62-3.607-0.135-4.953c0.481-1.344,2.367-2.287,3.035-3.109
	c0.662-0.82-1.308-1.02-1.284-2.789c0.016-1.77,2.923-1.6,3.777-2.781c0.857-1.176-0.264-1.671,0.401-2.49
	c0.665-0.818,3.087,0.693,4.125,0.039c1.037-0.656-0.055-3.804,1.548-4.655c1.604-0.851,2.897,1.058,4.025,0.665
	c1.131-0.392,2.268-1.67,4.054-1.992c1.783-0.33,2.622,0.268,4.042-1.114c1.423-1.368,2.332-7.864,3.463-8.253
	c1.127-0.392,3.25,2.988,4.099,2.692c0.845-0.292,1.41-0.488,3.193-0.812c1.786-0.325,4.138-0.845,6.958-1.821
	c2.823-0.983,5.046,1.776,7.86,1.684c2.814-0.098,3.54,2.004,5.044,1.775c1.503-0.221,0.491-2.226,2.094-3.077
	c1.606-0.851,3.742,0.759,8.15,0.704c4.41-0.059,2.948,4.856,4.263,4.988c1.311,0.135,4.333-2.088,5.544-1.333
	s2.284,5.677,2.284,5.677l4.298,1.445c0,0,2.14,1.612,2.699,2.303c0.553,0.691,4.507-0.681,5.444-0.716
	c0.938-0.029-1.998,2.46-1.722,3.244c0.27,0.79,1.876-0.062,2.149,0.726c0.272,0.791-0.029,2.657,0.427,3.971
	c0.456,1.314,0.234,4.327,1.729,4.989c1.494,0.655,0.81,3.244,2.586,3.81c1.776,0.557,2.942-3.376,3.971-3.145
	c1.031,0.234,1.558,3.578,1.073,4.918c-0.482,1.346,0.822,2.367,1.274,3.678c0.457,1.311,0.537,2.458,0.328,4.591
	c-0.209,2.134,1.375,3.052,1.445,5.085c0.074,2.033-0.437,6.033-0.446,6.92c-0.007,0.883-2.457,2.027-2.66,3.27
	c-0.199,1.25,2.969,3.088,3.142,4.504c0.174,1.407-2.676,5.041-3.067,6.65c-0.392,1.603,2.486,4.43,1.256,5.441
	c-0.646,0.533-1.645,0.543-2.56,0.511c0.138,2.022-0.126,4.213-0.784,6.017c-2.403,6.586-3.45,12.699-8.863,12.699
	c-1.142,0-2.235-0.253-3.256-0.721c-2.352,7.215-4.01,17.945-8.418,23.133l-0.028,0.032c0,0-7.854,7.476-1.88,19.28l0.286,0.325
	c2.933-1.713,6.405-3.328,7.434-2.124c1.883,2.194,7.212,11.597,7.212,11.597c21.651,0,23.755,18.786,24.609,25.888
	c0.537,4.465,2.853,24.254,4.501,37.254h15.657c17.187,0,31.118-13.51,31.118-30.696V287.698C1000,270.512,986.068,257,968.882,257z
	"/>
<path fill="#FFFFFF" d="M847.402,404.863c2.593-1.25-4.748,3.745-7.771,3.745c-6.148,0-11.134-5.91-11.134-13.199
	s4.985-13.2,11.134-13.2c0,0-8.086,0-8.086,13.2C831.546,403.151,839.632,408.608,847.402,404.863z"/>
<path fill="#FFFFFF" d="M915.756,404.863c-2.194-1.25,4.015,3.745,6.572,3.745c5.204,0,9.422-5.91,9.422-13.199
	s-4.218-13.2-9.422-13.2c0,0,6.842,0,6.842,13.2C929.17,403.151,922.328,408.608,915.756,404.863z"/>
<polygon fill="#F3B526" points="887.608,434.475 897.445,429.37 902.581,429.37 906.359,433.148 906.359,442.593 902.585,446.37 
	897.554,446.297 890.946,442.956 890.93,442.991 901.82,460.109 893.921,468.009 881.499,443.98 869.08,468.009 861.177,460.109 
	872.067,442.991 865.553,446.37 860.416,446.37 856.638,442.593 856.638,433.145 860.416,429.37 865.446,429.441 875.392,434.475 
	878.106,431.761 884.895,431.761 "/>
<path fill="#F3B526" d="M460.109,6H285.501C268.318,6,254,20.09,254,37.276v174.605C254,229.068,268.318,243,285.501,243h9.38
	c0,0,4.893-44.838,5.641-51.726c0.751-6.89,2.117-26.099,24.61-26.099c-12.246-1.256-21.214-18.776-21.214-18.776
	c10.958,3.771,20.887-1.698,14.179-13.198c-11.278-19.337,3.11-41.542,3.11-41.542c10.537-21.468,21.902-57.132,45.358-57.132
	c23.435,0,27.103,12.449,27.103,12.449c25.978,5.87,20.131,42.293,20.107,42.438c5-1.923,6.211,6.243,4.76,11.539
	c-0.524,1.912-1.025,3.757-1.597,5.419c0,0,7.488,16.327-0.074,34.408c-4.497,10.749,2.159,16.844,9.509,13.319
	c0,0-7.385,9.9-15.599,11.076c21.651,0,23.759,18.993,24.61,26.099c0.854,7.104,6.213,51.726,6.213,51.726h18.513
	C477.296,243,491,229.068,491,211.881V37.276C491,20.09,477.296,6,460.109,6z"/>
<polygon fill="#F3B526" points="374.349,177.185 384.185,172.079 389.322,172.079 393.099,175.857 393.099,185.303 389.322,189.079 
	384.294,189.007 377.687,185.664 377.67,185.7 388.56,202.82 380.658,210.721 368.239,186.689 355.82,210.721 347.917,202.82 
	358.807,185.7 352.292,189.079 347.156,189.079 343.378,185.301 343.378,175.855 347.156,172.079 352.183,172.151 362.132,177.185 
	364.847,174.471 371.634,174.471 "/>
<path fill="#F3B526" d="M205.726,743C222.912,743,237,729.068,237,711.882V537.277C237,520.095,222.912,506,205.726,506H31.118
	C13.934,506,0,520.095,0,537.277v174.604C0,729.068,13.934,743,31.118,743h15.704c1.492-13.675,3.506-32.146,3.967-36.367
	c0.752-6.887,2.117-26.098,24.608-26.098c0,0,5.331-9.405,7.214-11.6c1.05-1.224,4.65,0.485,7.618,2.232l0.288-0.43
	c5.574-10.659-3.61-19.277-3.61-19.281c-4.42-5.194-4.361-15.942-6.719-23.171l0.001,0.007c-1.02,0.466-2.117,0.72-3.257,0.72
	c-5.413,0-7.009-5.933-8.861-12.698c-1.449-5.297-0.236-13.355,4.764-11.429L72.836,605h0.344c0,0-3.987-29.81,0.262-41.001
	c12.253-32.278,26.717-24.001,26.717-24.001s2.885-8.36,16.152-8.36c13.269,0,32.7,5.641,42.109,20.822
	c7.229,11.664,13.123,7.49,15.003,9.373c1.877,1.876-5.196,6.769-11.541,3.64c-6.346-3.123,2.883,9.899,11.536,7.814
	c8.653-2.085-1.153,9.459-10.384,7.291c0,0,4.081,9.459,0.958,23.819c5.026-1.98,6.492,6.629,4.563,11.917
	c-2.405,6.589-3.449,12.698-8.861,12.698c-1.141,0-2.237-0.253-3.255-0.721c-2.352,7.219-2.286,17.946-6.692,23.133l-0.027,0.036
	c0,0-9.584,7.472-3.612,19.277l0.289,0.324c2.933-1.712,6.404-3.328,7.435-2.127c1.879,2.194,7.21,11.6,7.21,11.6
	c21.652,0,23.757,18.992,24.609,26.098c0.523,4.347,2.733,22.74,4.369,36.364"/>
<polygon fill="#F3B526" points="130.92,729.809 122.968,692.415 127.51,686.354 124.481,682.566 118.419,682.566 112.359,682.566 
	109.332,686.354 113.874,692.415 105.92,729.809 118.419,741.421 "/>
<path fill="#8FC74A" d="M714.495,506H539.888C522.705,506,509,520.091,509,537.277v174.604C509,729.068,522.705,743,539.888,743
	h13.947c0,0,4.891-44.838,5.643-51.729c0.75-6.891,2.116-26.101,24.609-26.101c0,0,5.329-9.402,7.21-11.597
	c1.053-1.228,4.652,0.485,7.62,2.232l0.288-0.431c2.255-4.311,2.377-8.291,1.723-11.5l-0.285,0.07
	c-13.404,2.799-20.99-5.185-20.99-5.185c8.354-5.987,5.967-25.11,5.967-25.11c-5.412,0-6.77-5.933-8.621-12.698
	c-1.451-5.297-0.998-12.972,5.002-11.536v0.004c0,0-6.165-36.566,19.866-42.445c0,0,1.821-12.451,25.254-12.451
	c48.155,0,45.855,50.096,45.554,54.629c5.713-1.283,6.543,6.647,4.6,11.974c-2.404,6.59-3.479,12.873-8.892,12.873h-0.77
	c0,0-2.389,18.949,5.969,24.936c0,0-7.512,7.81-20.788,5.136c-0.532,3.061-0.262,6.87,2.002,11.349l0.289,0.303
	c2.932-1.709,6.404-3.339,7.434-2.138c1.882,2.194,7.212,11.592,7.212,11.592c21.651,0,23.757,18.992,24.608,26.098
	c0.855,7.103,6.214,51.726,6.214,51.726h13.943C731.683,743,746,729.068,746,711.882V537.277C746,520.091,731.683,506,714.495,506z"
	/>
<polygon fill="#8FC74A" points="633.301,669.867 643.139,664.763 648.277,664.763 652.055,668.541 652.055,677.985 648.277,681.763 
	643.246,681.688 636.642,678.348 636.626,678.384 647.514,695.502 639.613,703.404 627.194,679.373 614.771,703.404 
	606.873,695.502 617.761,678.384 611.248,681.763 606.109,681.763 602.332,677.985 602.332,668.537 606.108,664.763 
	611.139,664.834 621.084,669.867 623.799,667.153 630.586,667.153 "/>
<path fill="#23689A" d="M460.109,506H285.501C268.316,506,254,520.088,254,537.274v174.607C254,729.068,268.316,743,285.501,743
	h13.945c0,0,4.893-44.838,5.643-51.729c0.751-6.888,2.117-26.098,24.611-26.098c0,0,5.33-9.405,7.21-11.6
	c1.05-1.224,4.651,0.485,7.62,2.232l0.288-0.431c1.649-3.154,2.157-5.271,2.056-7.896l-0.425,1.734c0,0-7.777-0.857-11.793-3.206
	c-3.299-1.918-7.531,0.37-13.458-5.558c-2.581-2.582,3.821-2.679,3.494-7.031c-0.328-4.353-1.011-2.346-3.02-7.032
	c-2.008-4.686,4.692-14.673,4.692-14.673l0.249-0.212c-2-2.323-3.068-6.271-4.24-10.55c-1.451-5.297-0.236-13.461,4.763-11.539
	c-0.03-0.035-2.861-3.403-1.324-12.9c0.866-5.361,3.436-6.512,6.167-11.578c2.343-4.355,3.522-19.419,15.265-19.419
	c0,0,1.42-4.031,10.233-8.583c9.321-4.809,28.465-2.426,32.422-1.462c6.146,1.497,7.22,4.578,11.268,7.755
	c3.58,2.808,8.572,6.119,10.827,9.663c2.649,4.16,2.339,8.635,3.606,12.978c1.256,4.302,4.529,9.342,4.904,12.952
	c0.552,5.305-1.183,8.854-1.95,10.13c4.813-1.588,6.2,6.808,4.304,12.004c-1.577,4.324-2.57,8.445-4.6,10.762
	c0,0,7.565,6.736,5.556,11.423c-2.01,4.689-5.211,7.224-2.156,10.282c3.087,3.087,5.212,4.449,2.629,7.031
	c-5.927,5.928-11.155,3.691-14.247,5.365c-3.055,1.655-10.365,3.221-11.652,3.488c0.296,1.865,0.92,3.893,2.022,6.071l0.289,0.325
	c2.931-1.709,6.404-3.328,7.433-2.127c1.883,2.194,7.212,11.6,7.212,11.6c21.651,0,23.757,18.995,24.61,26.098
	c0.854,7.105,6.213,51.729,6.213,51.729h13.945C477.296,743,491,729.068,491,711.882V537.274C491,520.088,477.296,506,460.109,506z"
	/>
<polygon fill="#23689A" points="378.915,667.343 388.751,662.238 393.89,662.238 397.667,666.016 397.667,675.46 393.89,679.238 
	388.861,679.164 382.254,675.823 382.238,675.858 393.126,692.978 385.226,700.88 372.807,676.848 360.386,700.88 352.485,692.978 
	363.374,675.858 356.86,679.238 351.722,679.238 347.944,675.46 347.944,666.013 351.722,662.238 356.751,662.309 366.698,667.343 
	369.413,664.628 376.201,664.628 "/>
<path fill="#3E9ED8" d="M816.231,743.421"/>
<path fill="#3E9ED8" d="M951.07,743.421"/>
<path fill="#3E9ED8" d="M968.882,743c17.187,0,31.118-13.932,31.118-31.118V537.28c0-17.189-13.932-31.28-31.118-31.28H794.274
	C777.09,506,763,520.091,763,537.28v174.602C763,729.068,777.09,743,794.274,743h22.692c1.28-10.665,4.544-37.848,5.17-43.052
	c0.781-6.502,2.709-23.891,22.529-23.891c0,0,4.879-8.609,6.6-10.62c0.942-1.099,5.705,1.963,8.389,3.53l0.264-0.296
	c5.468-10.806-2.512-19.232-2.512-19.232l-0.027-0.031c-4.034-4.749-6.344-14.572-8.501-21.174
	c-0.932,0.426-1.935,0.656-2.979,0.656c-4.957,0-5.911-5.589-8.111-11.622l0.466,0.062c-5.65-3.697-3.598-17.941-3.598-17.941
	c-3.081,0.526-6.162,10.025-6.162,10.025c-2.569-7.392,2.567-20.585,2.567-20.585c-7.704,0.527-7.704,11.086-7.704,11.086
	c-2.053-7.918,4.758-28.358,14.896-42.227c6.071-8.301,17.462-17.94,25.169-20.578c7.705-2.641,14.382,3.69,14.382,3.69
	s7.192-10.025,23.113-10.552c15.923-0.53,34.415,7.385,39.551,18.468c5.136,11.086,4.622,25.336,4.622,25.336
	s-4.622-8.445-7.703-6.858c0,0,5.137,12.663,3.081,21.108c0,0-3.595-10.556-7.704-8.973c0,0,4.758,14.035,3.492,21.401
	c0,0-2.528-5.632-4.848-5.632c0,0,2.107,8.449-2.11,13.65l0.196-0.087c0.999,2.277,1.026,5.862,0.276,8.605
	c-1.693,6.19-3.156,11.622-8.111,11.622c-1.044,0-2.05-0.231-2.981-0.655l0.002-0.007c-2.161,6.617-4.479,16.457-8.524,21.211
	c0,0-7.616,9.474-2.516,19.232l0.264,0.396c2.718-1.6,7.594-4.751,8.558-3.63c1.722,2.011,6.602,10.62,6.602,10.62
	c20.592,0,21.841,17.585,22.528,23.891c0.55,5.05,3.527,32.354,4.696,43.049"/>
<polygon fill="#3E9ED8" points="889.736,687.169 899.574,682.062 904.711,682.062 908.489,685.839 908.489,695.287 904.711,699.062 
	899.683,698.991 893.076,695.646 893.06,695.682 903.95,712.804 896.048,720.703 883.629,696.672 871.208,720.703 863.307,712.804 
	874.197,695.682 867.683,699.062 862.546,699.062 858.768,695.284 858.768,685.839 862.544,682.062 867.573,682.136 
	877.521,687.169 880.234,684.455 887.022,684.455 "/>
</svg>
